<svg xmlns="http://www.w3.org/2000/svg" xmlns:xlink="http://www.w3.org/1999/xlink" zoomAndPan="magnify" preserveAspectRatio="xMidYMid meet" version="1.0" viewBox="0.49 1 29.03 26.84"><defs><clipPath id="ab20f39960"><path d="M 2 1 L 29.515625 1 L 29.515625 15 L 2 15 Z M 2 1 " clip-rule="nonzero"></path></clipPath><clipPath id="087966814a"><path d="M 0.488281 14.027344 L 28.121094 14.027344 L 28.121094 27.835938 L 0.488281 27.835938 Z M 0.488281 14.027344 " clip-rule="nonzero"></path></clipPath><clipPath id="d8dd898715"><path d="M 6.007812 11.371094 L 22.703125 11.371094 L 22.703125 20 L 6.007812 20 Z M 6.007812 11.371094 " clip-rule="nonzero"></path></clipPath></defs><g clip-path="url(#ab20f39960)"><path fill="#1d1d1b" d="M 15.097656 2.757812 C 20.0625 2.757812 24.320312 5.808594 26.074219 10.121094 C 26.074219 10.125 26.074219 10.128906 26.070312 10.128906 L 24.625 10.582031 C 24.320312 10.675781 24.234375 11.058594 24.46875 11.273438 L 27.785156 14.289062 C 28.019531 14.503906 28.398438 14.386719 28.464844 14.078125 L 29.441406 9.722656 C 29.511719 9.414062 29.21875 9.148438 28.917969 9.242188 L 27.636719 9.640625 C 27.632812 9.644531 27.628906 9.640625 27.628906 9.636719 C 27.019531 8.085938 26.109375 6.648438 24.933594 5.398438 C 22.234375 2.53125 18.382812 0.980469 14.433594 1.167969 C 11.089844 1.328125 7.96875 2.699219 5.585938 5.0625 C 4.023438 6.613281 2.890625 8.484375 2.253906 10.523438 C 2.089844 11.039062 2.484375 11.5625 3.027344 11.5625 C 3.382812 11.5625 3.695312 11.332031 3.804688 10.996094 C 5.308594 6.230469 9.800781 2.757812 15.097656 2.757812 " fill-opacity="1" fill-rule="nonzero"></path></g><g clip-path="url(#087966814a)"><path fill="#1d1d1b" d="M 15.097656 26.230469 C 9.964844 26.230469 5.589844 22.972656 3.953125 18.433594 C 3.953125 18.429688 3.953125 18.425781 3.957031 18.425781 L 5.351562 18.128906 C 5.660156 18.0625 5.78125 17.6875 5.570312 17.453125 L 2.570312 14.175781 C 2.355469 13.941406 1.96875 14.023438 1.871094 14.324219 L 0.507812 18.539062 C 0.410156 18.839844 0.679688 19.128906 0.988281 19.0625 L 2.34375 18.773438 C 2.347656 18.773438 2.351562 18.773438 2.351562 18.777344 C 3.007812 20.695312 4.101562 22.453125 5.585938 23.929688 C 8.128906 26.449219 11.503906 27.835938 15.097656 27.835938 C 18.6875 27.835938 22.066406 26.449219 24.605469 23.929688 C 26.300781 22.246094 27.484375 20.199219 28.085938 17.964844 C 28.226562 17.449219 27.839844 16.945312 27.304688 16.945312 C 26.9375 16.945312 26.617188 17.191406 26.519531 17.542969 C 25.164062 22.542969 20.558594 26.230469 15.097656 26.230469 " fill-opacity="1" fill-rule="nonzero"></path></g><g clip-path="url(#d8dd898715)"><path fill="#000000" d="M 21.234375 11.449219 C 22.484375 11.449219 22.785156 12.148438 21.894531 13.019531 L 15.21875 19.550781 C 14.773438 19.984375 14.046875 19.976562 13.605469 19.550781 L 6.929688 13.019531 C 6.046875 12.152344 6.34375 11.449219 7.59375 11.449219 Z M 21.234375 11.449219 " fill-opacity="1" fill-rule="evenodd"></path></g></svg>