<svg xmlns="http://www.w3.org/2000/svg" fill="none" class="fjs-palette-field-icon" viewBox="12.35 10.45 29.3 33.25"><path fill="currentColor" fill-rule="evenodd" d="M14.35 24.75H19v4.65h-4.65v-4.65Zm-1.414-1.414a2 2 0 0 1 1.414-.586H19a2 2 0 0 1 2 2v4.65a2 2 0 0 1-2 2h-4.65a2 2 0 0 1-2-2v-4.65a2 2 0 0 1 .586-1.414ZM14.35 37.05H19v4.65h-4.65v-4.65Zm-1.414-1.414a2 2 0 0 1 1.414-.586H19a2 2 0 0 1 2 2v4.65a2 2 0 0 1-2 2h-4.65a2 2 0 0 1-2-2v-4.65a2 2 0 0 1 .586-1.414ZM14.35 12.45H19v4.65h-4.65v-4.65Zm-1.414-1.414a2 2 0 0 1 1.414-.586H19a2 2 0 0 1 2 2v4.65a2 2 0 0 1-2 2h-4.65a2 2 0 0 1-2-2v-4.65a2 2 0 0 1 .586-1.414Zm12.007 14.977a1 1 0 0 0-.293.707v.65a1 1 0 0 0 1 1h15a1 1 0 0 0 1-1v-.65a1 1 0 0 0-1-1h-15a1 1 0 0 0-.707.293Zm0 12.3a1 1 0 0 0-.293.707v.65a1 1 0 0 0 1 1h15a1 1 0 0 0 1-1v-.65a1 1 0 0 0-1-1h-15a1 1 0 0 0-.707.293Zm0-24.6a1 1 0 0 0-.293.707v.65a1 1 0 0 0 1 1h15a1 1 0 0 0 1-1v-.65a1 1 0 0 0-1-1h-15a1 1 0 0 0-.707.293Z" clip-rule="evenodd"></path></svg>