<?xml version="1.0" encoding="UTF-8"?>
<svg version="1.1" viewBox="0 0 2048 2048" width="1280" height="1280" xmlns="http://www.w3.org/2000/svg">
<path transform="translate(0)" d="m0 0h2048v2048h-2048z" fill="#FEFEFE"/>
<path transform="translate(502,299)" d="m0 0h314l1 130h-270v1314l953-1v-1313h-270l1-129 1-1h312l11 1 14 6 10 8 6 8 4 8 3 12v1450l-3 12-6 11-5 6-13 9-12 4-23 1h-1027l-12-2-12-5-9-7-7-8-5-10-2-8-1-32v-1280l1-144 3-10 6-11 9-9 12-7 7-2z"/>
<path transform="translate(1015,213)" d="m0 0h18l15 3 16 6 12 7 11 9 10 11 8 13 6 13 2 7 52 1 8 4 4 7v122l-4 8-5 4-4 1h-281l-6-3-5-5-1-2-1-10v-113l3-7 6-5 3-1h53l2-8 6-14 8-12 9-10 10-9 15-9 18-6z"/>
<path transform="translate(925,974)" d="m0 0h481l13 4 8 7 5 8 2 6v14l-4 9-6 8-10 6-12 2h-476l-9-2-10-6-7-9-3-7v-15l3-8 4-6 8-7 7-3z"/>
<path transform="translate(901,622)" d="m0 0h477l10 2 9 5 7 8 4 10v14l-4 10-8 9-8 4-11 2h-477l-9-2-10-6-6-7-4-10v-14l4-10 7-8 11-6z"/>
<path transform="translate(912,1326)" d="m0 0h485l10 3 8 6 6 8 3 9v12l-4 10-7 8-7 5-6 2-20 1h-460l-13-2-10-6-6-7-4-9-1-9 3-13 6-9 9-6z"/>
<path transform="translate(618,1328)" d="m0 0h180v181h-180z" fill="#FEFEFE"/>
<path transform="translate(638,976)" d="m0 0h124l36 1v180h-180l-1-180z" fill="#FEFEFE"/>
<path transform="translate(618,625)" d="m0 0h180v180h-180z" fill="#FEFEFE"/>
<path transform="translate(900,744)" d="m0 0h232l11 1 12 6 8 10 3 9v12l-3 9-6 8-9 6-5 2-7 1h-239l-10-4-8-6-6-9-2-6v-14l4-10 8-9 10-5z"/>
<path transform="translate(925,1096)" d="m0 0h238l12 3 9 7 6 10 2 7v10l-3 9-4 6-7 7-9 4-17 1h-222l-13-2-10-6-6-7-4-10v-14l4-10 7-8 8-5z"/>
<path transform="translate(913,1448)" d="m0 0h242l11 4 8 6 6 10 2 7v9l-3 10-6 8-8 6-7 3-46 1h-163l-38-1-10-4-8-7-5-10-2-8 1-10 4-9 7-8 8-5z"/>
<path transform="translate(618,1328)" d="m0 0h180v181h-180zm25 25-1 1v129l1 1h130v-130l-1-1z"/>
<path transform="translate(638,976)" d="m0 0h124l36 1v180h-180l-1-180zm5 25-1 2v128l2 2h29l100-1v-130l-3-1z"/>
<path transform="translate(618,625)" d="m0 0h180v180h-180zm25 25-1 1v129l2 1h128l1-1v-130z"/>
<path transform="translate(1021,256)" d="m0 0 12 1 10 4 9 7 7 11 3 12-1 12-4 10-6 8-8 6-10 4-13 1-12-3-10-7-7-8-5-13v-14l5-13 9-10 8-5 6-2z" fill="#FEFEFE"/>
<path transform="translate(752,1376)" d="m0 0h7l2 3-5 5-10 8-10 10-11 15-11 21-8 16-5 4-11 4-4-2-10-17-9-10-5-6-7-6-1-3 12-5 9-3 6 1 8 10 4 7 2 1 2-5 8-11 9-10 8-8 12-9 15-9z"/>
<path transform="translate(752,672)" d="m0 0h7l2 3-5 5-14 12-10 11-10 15-12 25-3 6-7 6-8 3-5-1-6-9-7-11-9-10-10-10v-4l22-7 5 2 11 16h2l7-11 11-13 7-7 14-11 16-9z"/>
<path transform="translate(752,1024)" d="m0 0h7l2 3-5 5-10 8-11 11-9 13-8 14-8 17-3 6-6 5-10 4-5-2-10-17-10-11-5-5-7-8 1-2 22-7 5 2 8 11 4 6 8-12 12-14 7-7 13-10 16-9z"/>
</svg>
