<svg xmlns="http://www.w3.org/2000/svg" fill="currentcolor" class="fjs-palette-field-icon" viewBox="12.3 11.06 29.4 31.87"><path fill-rule="evenodd" d="M37.908 13.418h-5.004v-2.354h-1.766v2.354H21.13v-2.354h-1.766v2.354H14.36a2.07 2.07 0 0 0-2.06 2.06v23.549a2.07 2.07 0 0 0 2.06 2.06h6.77v-1.766h-6.358a.707.707 0 0 1-.706-.706V15.89c0-.39.316-.707.706-.707h4.592v2.355h1.766v-2.355h10.008v2.355h1.766v-2.355h4.592a.71.71 0 0 1 .707.707v6.358h1.765v-6.77c0-1.133-.927-2.06-2.06-2.06z"></path><path d="m35.13 37.603 1.237-1.237-3.468-3.475v-5.926h-1.754v6.654l3.984 3.984Z"></path><path fill-rule="evenodd" d="M23.08 36.962a9.678 9.678 0 1 0 17.883-7.408 9.678 9.678 0 0 0-17.882 7.408Zm4.54-10.292a7.924 7.924 0 1 1 8.805 13.177A7.924 7.924 0 0 1 27.62 26.67Z"></path></svg>