<svg xmlns="http://www.w3.org/2000/svg" version="1.0" width="360.000000pt" height="360.000000pt" viewBox="0 0 360.000000 360.000000" preserveAspectRatio="xMidYMid meet">

<g transform="translate(0.000000,360.000000) scale(0.100000,-0.100000)" fill="#000000" stroke="none">
<path d="M1437 2152 c-543 -543 -987 -994 -987 -1002 0 -8 154 -169 342 -357 270 -270 348 -343 368 -343 20 0 223 198 1008 983 646 646 982 989 982 1002 0 28 -678 705 -705 705 -13 0 -355 -335 -1008 -988z m663 -657 l-945 -945 -300 300 -300 300 63 62 62 63 183 -183 c117 -117 189 -182 203 -182 24 0 44 18 44 40 0 8 -83 98 -185 200 l-185 185 57 57 c32 32 62 58 68 58 6 0 48 -38 95 -85 84 -84 105 -96 128 -73 26 26 11 54 -75 140 l-88 88 63 62 62 63 183 -183 c117 -117 189 -182 203 -182 24 0 44 18 44 40 0 8 -81 96 -180 195 -99 99 -180 184 -180 190 0 6 26 36 58 68 l57 57 90 -90 c89 -89 110 -101 133 -78 26 26 11 54 -75 140 l-88 88 63 62 62 63 183 -183 c117 -117 189 -182 203 -182 24 0 44 18 44 40 0 9 -81 97 -180 195 -99 99 -180 184 -180 190 0 5 26 35 57 67 l57 58 92 -90 c50 -50 97 -90 104 -90 17 0 50 30 50 44 0 6 -41 54 -91 105 l-91 93 58 59 c32 33 61 59 64 59 3 0 85 -79 180 -175 96 -96 185 -178 198 -181 27 -8 52 11 52 39 0 14 -64 85 -182 204 l-183 183 61 61 60 60 93 -91 c51 -49 96 -90 101 -90 4 0 18 8 30 18 32 26 22 45 -75 142 l-85 85 97 97 97 98 186 -185 c103 -102 192 -185 198 -185 7 0 21 9 32 20 15 15 18 25 11 37 -5 9 -89 97 -187 195 l-178 178 74 75 75 75 300 -300 300 -300 -945 -945z"/>
</g>
</svg>