<?xml version="1.0" encoding="UTF-8"?>
<svg version="1.1" viewBox="0 0 2048 1210" width="1280" height="1280" xmlns="http://www.w3.org/2000/svg">
<path transform="translate(0)" d="m0 0h2048v1210h-2048z" fill="#F9F9F9"/>
<path transform="translate(1376)" d="m0 0h21l15 4 15 8 12 11 9 14 5 13 15 63 16 68 18 76 17 72 4 19v14l-5 21-6 16-6 8-10 9-11 6-11 4-10 2-296 20h-20l-14-3-16-8-10-8-8-9-8-16-4-16v-14l3-14 5-12 9-13 14-19 15-20 13-18 28-38 1-2-7-1-36-9-35-6-26-3-17-1h-56l-36 3-32 5-36 8-31 9-30 11-25 11-30 15-24 14-17 11-17 12-17 13-11 9-15 13-37 37-8 10-8 9-10 13-13 18-12 18-8 13-12 21-14 28-12 29-10 28-10 36-7 34-3 20-3 28-1 23v35l1 23 4 35 7 38 10 37 12 35 11 26 11 23 12 22 13 21 9 13 13 15 11 9 12 9 15 8 16 5 282 1 32 1 26 2 5 1 3-26 3-29 1-17v-66l-2-29-4-33-6-34-27-1-29-3-22-4-15-4-18-6-18-8-19-11-16-12-20-20-12-17-10-18-10-22-9-24-9-31-9-40-6-35-5-40-2-21v-10l21 3 38 8 35 9 36 12 29 12 26 13 20 13 13 10 15 14 11 14 10 15 10 19 7 18 6 25 2 14 7-19 8-16 10-16 9-11 16-16 16-12 19-12 23-12 19-9 28-11 28-9h2l2 36v38l-2 32-4 29-6 24-7 19-8 15-12 16-21 21-14 10-16 10-17 9-30 11 3 22 5 40 2 30v60l-2 29-4 35-3 17-1 2 13-2 41-2 248-1 15-4 12-5 16-10 14-12 7-7 10-13 11-17 13-23 12-23 10-22 11-28 9-28 8-31 6-31 4-31 2-28v-29l-4-37-6-41-8-45-7-30-8-26-6-18-1-5v-21l4-15 6-11 7-9 9-9 14-8 13-4 5-1h19l15 4 15 8 10 9 7 9 8 16 11 30 9 29 9 35 7 36 4 26 3 34 2 33v20l-2 45-3 32-6 38-7 33-9 34-12 36-11 28-8 18-14 29-12 23-12 20-12 19-14 20-14 19-9 11-11 13-12 14-7 7-7 8-9 7-19 10-18 6h-853l-15-4-16-8-13-12-7-8-8-8-9-11-13-15-15-20-14-19-13-20-11-18-11-19-15-29-12-26-13-33-12-35-10-38-7-33-5-32-4-38-1-14v-67l2-29 5-39 6-33 9-38 13-42 13-34 12-27 14-29 13-23 12-20 10-15 11-16 12-16 7-9 8-10 11-13 7-8 18-20 21-21 8-7 11-10 11-9 13-11 13-10 18-13 27-18 20-12 18-10 23-12 30-14 28-11 29-10 27-8 36-9 33-6 39-5 26-2h77l42 4 29 4 35 7 35 9 35 11 20 7 14-19 11-15 12-16 13-18 12-16 13-18 10-9 14-8z"/>
</svg>
