<svg xmlns="http://www.w3.org/2000/svg" fill="none" viewBox="0 0 130.31 100.07"><path fill="#FF832B" fill-rule="evenodd" d="M70 78v8a3 3 0 0 1-3 3h-8v-5h6v-6h5Zm0-16h-5V46h5v16Zm0-32h-5v-6h-6v-5h8a3 3 0 0 1 3 3v8ZM43 19v5H27v-5h16Zm-32 0v5H5v6H0v-8a3 3 0 0 1 3-3h8ZM0 46h5v16H0V46Zm0 32h5v6h6v5H3a3 3 0 0 1-3-3v-8Zm27 11v-5h16v5H27Z" clip-rule="evenodd"></path><rect width="70" height="70" fill="#E5E5E5" rx="3" transform="matrix(-1 0 0 1 94 0)"></rect><mask id="EmptyForm_svg__a" fill="#fff"><path fill-rule="evenodd" d="M87.085 88.684 75.43 45.185l43.499 11.656-11.044 8.072 8.557 8.556-12.728 12.728-8.557-8.556-8.072 11.043Z" clip-rule="evenodd"></path></mask><path fill="#393939" fill-rule="evenodd" d="M87.085 88.684 75.43 45.185l43.499 11.656-11.044 8.072 8.557 8.556-12.728 12.728-8.557-8.556-8.072 11.043Z" clip-rule="evenodd"></path><path fill="#393939" d="M75.43 45.185 70.6 46.48l-2.241-8.365 8.365 2.242-1.294 4.83Zm11.655 43.499 4.037 2.95-6.163 8.432-2.704-10.088 4.83-1.294Zm31.844-31.843 1.294-4.83 10.088 2.703-8.432 6.163-2.95-4.036Zm-11.044 8.072-3.535 3.535-4.128-4.127 4.713-3.445 2.95 4.037Zm8.557 8.556 3.535-3.535 3.536 3.535-3.536 3.536-3.535-3.536Zm-12.728 12.728 3.536 3.536-3.536 3.535-3.536-3.535 3.536-3.536Zm-8.557-8.556-4.036-2.951 3.444-4.713 4.128 4.128-3.536 3.535ZM80.26 43.89 91.915 87.39l-9.66 2.588L70.6 46.48l9.66-2.588Zm37.375 17.78L74.136 50.014l2.588-9.66 43.499 11.656-2.589 9.66Zm-12.699-.795 11.043-8.072 5.901 8.073-11.043 8.072-5.901-8.073Zm7.971 16.129-8.556-8.557 7.071-7.07 8.556 8.556-7.071 7.07Zm-12.728 5.657 12.728-12.728 7.071 7.07-12.727 12.729-7.072-7.071Zm-1.485-8.557 8.557 8.557-7.072 7.07-8.556-8.556 7.07-7.071ZM83.049 85.733 91.12 74.69l8.073 5.901-8.072 11.044-8.073-5.902Z" mask="url(#EmptyForm_svg__a)"></path><path stroke="#000" stroke-linecap="round" stroke-width="3" d="m69.431 39.163-9.192-9.192"></path><path stroke="#000" stroke-linecap="round" stroke-width="3" d="M1.5-1.5h8" transform="matrix(-1 0 0 1 68.213 50.123)"></path><path stroke="#000" stroke-linecap="round" stroke-width="3" d="M78.969 36.367v-8"></path></svg>