<?xml version="1.0" standalone="no"?>
<!DOCTYPE svg PUBLIC "-//W3C//DTD SVG 20010904//EN"
 "http://www.w3.org/TR/2001/REC-SVG-20010904/DTD/svg10.dtd">
<svg version="1.0" xmlns="http://www.w3.org/2000/svg"
 width="512.000000pt" height="512.000000pt" viewBox="0 0 512.000000 512.000000"
 preserveAspectRatio="xMidYMid meet">

<g transform="translate(0.000000,512.000000) scale(0.100000,-0.100000)"
fill="#000000" stroke="none">
<path d="M966 5104 c-132 -32 -245 -124 -307 -250 l-32 -64 -144 0 c-139 0
-145 -1 -168 -25 l-25 -24 0 -2346 c0 -2322 0 -2345 20 -2365 11 -11 30 -22
42 -25 13 -3 614 -4 1336 -3 l1312 3 480 480 480 480 0 1888 0 1888 -25 24
-24 25 -1195 0 -1196 0 -32 66 c-63 130 -191 227 -332 253 -76 14 -116 13
-190 -5z m229 -173 c50 -22 104 -68 128 -110 l18 -31 -265 0 c-146 0 -266 4
-266 8 0 16 71 91 107 113 82 51 191 59 278 20z m175 -607 c0 -290 -1 -308
-20 -339 -38 -61 -118 -81 -178 -45 -66 41 -72 63 -72 276 0 178 -1 193 -21
218 -28 35 -86 36 -118 2 -22 -23 -22 -28 -19 -242 3 -207 4 -221 26 -264 32
-61 77 -107 137 -138 69 -36 187 -38 256 -4 63 31 117 86 148 152 l26 55 3
318 4 317 1129 0 1129 0 0 -1775 0 -1774 -435 -3 -434 -3 -23 -23 -23 -23 -3
-434 -3 -435 -1214 0 -1215 0 0 2235 0 2235 460 0 460 0 0 -306z m2300 -3412
c0 -4 -139 -147 -310 -317 l-310 -310 0 318 0 317 310 0 c171 0 310 -3 310 -8z"/>
<path d="M977 3460 c-44 -35 -43 -93 2 -127 24 -19 2269 -18 2293 1 44 33 42
98 -4 130 -20 14 -132 16 -1144 16 -1103 0 -1122 0 -1147 -20z"/>
<path d="M977 2970 c-44 -35 -43 -93 2 -127 24 -19 2269 -18 2293 1 44 33 42
98 -4 130 -20 14 -132 16 -1144 16 -1103 0 -1122 0 -1147 -20z"/>
<path d="M977 2480 c-13 -11 -28 -31 -31 -45 -7 -29 15 -79 39 -89 9 -3 524
-6 1143 -6 909 1 1130 3 1144 14 44 33 42 98 -4 130 -20 14 -132 16 -1144 16
-1103 0 -1122 0 -1147 -20z"/>
<path d="M977 1990 c-13 -11 -28 -31 -31 -45 -7 -29 15 -79 39 -89 9 -3 524
-6 1143 -6 909 1 1130 3 1144 14 44 33 42 98 -4 130 -20 14 -132 16 -1144 16
-1103 0 -1122 0 -1147 -20z"/>
<path d="M977 1500 c-13 -11 -28 -31 -31 -45 -7 -29 15 -79 39 -89 9 -3 524
-6 1143 -6 909 1 1130 3 1144 14 47 35 40 107 -12 133 -20 10 -261 13 -1141
13 -1098 0 -1117 0 -1142 -20z"/>
<path d="M4152 4767 c-32 -34 -30 -89 4 -116 15 -12 37 -21 50 -21 l24 0 0
-2235 0 -2235 -450 0 -451 0 -24 -25 c-39 -38 -27 -102 22 -124 16 -8 177 -11
518 -11 l494 0 28 24 28 24 3 2319 c1 1275 0 2333 -3 2351 -11 58 -37 72 -135
72 -77 0 -89 -2 -108 -23z"/>
<path d="M4599 4780 c-9 -5 -22 -23 -29 -40 -22 -54 19 -110 80 -110 20 0 20
-25 20 -2235 l0 -2235 -29 0 c-38 0 -69 -27 -77 -67 -5 -27 -1 -37 24 -63 28
-28 36 -30 102 -30 74 0 123 16 134 45 3 9 6 1069 6 2356 l0 2340 -25 24 c-22
23 -32 25 -107 25 -46 0 -90 -5 -99 -10z"/>
</g>
</svg>
