<?xml version="1.0" standalone="no"?>
<!DOCTYPE svg PUBLIC "-//W3C//DTD SVG 20010904//EN"
 "http://www.w3.org/TR/2001/REC-SVG-20010904/DTD/svg10.dtd">
<svg version="1.0" xmlns="http://www.w3.org/2000/svg"
 width="512.000000pt" height="512.000000pt" viewBox="0 0 512.000000 512.000000"
 preserveAspectRatio="xMidYMid meet">

<g transform="translate(0.000000,512.000000) scale(0.100000,-0.100000)"
fill="#000000" stroke="none">
<path d="M737 5106 c-58 -21 -103 -61 -131 -118 l-26 -52 0 -2376 0 -2376 25
-51 c15 -28 41 -63 60 -78 77 -58 -11 -55 1568 -55 l1450 0 416 413 c229 226
421 419 428 427 9 11 12 127 13 477 l0 462 -22 21 c-27 25 -69 26 -99 1 l-24
-19 -3 -411 -3 -411 -328 0 c-324 0 -328 0 -372 -23 -24 -13 -57 -43 -74 -66
l-30 -43 -3 -339 -3 -339 -1394 0 -1393 0 -31 26 -31 26 0 2358 0 2358 31 26
31 26 404 0 c241 0 413 4 423 10 10 5 24 22 30 39 10 24 10 34 -3 59 -8 16
-23 32 -31 36 -9 3 -202 6 -428 6 -318 -1 -421 -4 -450 -14z m3543 -4299 c0
-1 -124 -126 -275 -277 l-275 -275 0 262 c0 224 2 264 16 277 13 14 52 16 275
16 142 0 259 -1 259 -3z"/>
<path d="M1892 5113 c-7 -3 -19 -18 -28 -35 -13 -25 -13 -35 -3 -59 6 -17 20
-34 30 -39 11 -6 472 -10 1228 -10 l1209 0 31 -26 31 -26 0 -1414 c0 -1222 2
-1419 15 -1443 23 -46 66 -54 109 -20 l26 20 0 1438 0 1437 -25 51 c-15 28
-41 63 -60 78 -77 58 -11 55 -1334 54 -669 0 -1222 -3 -1229 -6z"/>
<path d="M1045 4645 l-25 -24 0 -361 0 -361 25 -24 c13 -14 36 -25 50 -25 14
0 37 11 50 25 24 23 25 28 25 170 l0 145 99 0 c112 0 136 11 147 67 5 26 1 37
-19 57 -25 24 -32 26 -127 26 l-100 0 0 90 0 90 110 0 c104 0 112 1 135 25 14
13 25 36 25 50 0 14 -11 37 -25 50 -24 24 -27 25 -185 25 -158 0 -161 -1 -185
-25z"/>
<path d="M1873 4651 c-105 -39 -190 -116 -241 -221 -24 -50 -27 -66 -27 -165
0 -102 2 -115 31 -176 122 -256 458 -316 657 -117 167 167 164 424 -7 586 -83
78 -149 105 -266 109 -75 3 -106 -1 -147 -16z m243 -155 c64 -30 120 -95 140
-164 62 -212 -169 -403 -366 -302 -44 23 -107 90 -126 136 -20 47 -17 150 5
199 61 135 214 193 347 131z"/>
<path d="M2595 4650 c-19 -21 -20 -40 -23 -373 -3 -374 -1 -395 44 -416 35
-16 48 -14 78 10 26 20 26 23 26 141 0 66 4 118 8 116 5 -1 61 -62 125 -135
65 -72 126 -135 138 -138 49 -16 108 41 93 89 -4 11 -49 69 -101 128 l-94 107
37 16 c60 25 97 59 129 116 66 122 17 271 -112 335 -31 15 -65 20 -183 22
-139 3 -147 2 -165 -18z m307 -159 c87 -78 -6 -185 -148 -169 l-29 3 -3 98 -3
97 75 0 c69 0 78 -2 108 -29z"/>
<path d="M3399 4657 c-9 -7 -20 -21 -26 -32 -6 -11 -39 -175 -73 -364 l-62
-344 20 -26 c13 -18 30 -27 55 -29 54 -5 71 19 91 129 45 250 59 320 63 316 2
-2 31 -96 64 -208 37 -127 67 -211 79 -224 28 -27 93 -27 121 1 14 14 40 89
79 223 32 111 60 204 62 207 3 2 19 -74 37 -168 42 -223 47 -241 70 -262 28
-26 79 -17 105 17 l20 27 -67 353 c-62 322 -70 354 -93 375 -34 30 -87 30
-117 -1 -17 -16 -41 -86 -87 -249 -36 -126 -67 -228 -70 -228 -3 0 -25 69 -49
153 -79 272 -91 307 -113 327 -25 23 -84 27 -109 7z"/>
<path d="M1054 3550 c-26 -10 -54 -48 -54 -71 0 -9 9 -28 21 -43 l20 -26 1519
0 1519 0 20 26 c27 35 26 57 -3 91 l-24 28 -1499 2 c-831 1 -1508 -2 -1519 -7z"/>
<path d="M1044 3178 c-22 -10 -44 -47 -44 -72 0 -7 9 -25 21 -40 l20 -26 210
0 c196 0 210 1 229 20 30 30 27 83 -6 109 -25 20 -39 21 -218 20 -110 0 -200
-5 -212 -11z"/>
<path d="M1743 3180 c-44 -18 -57 -86 -23 -120 20 -20 33 -20 1189 -20 l1170
0 20 26 c12 15 21 33 21 40 0 26 -23 62 -47 73 -30 14 -2296 15 -2330 1z"/>
<path d="M1025 2795 c-14 -13 -25 -36 -25 -50 0 -14 11 -37 25 -50 l24 -25
845 0 c464 0 852 3 861 6 8 4 22 19 30 34 19 36 4 83 -31 99 -18 8 -258 11
-865 11 l-840 0 -24 -25z"/>
<path d="M3033 2808 c-48 -23 -51 -103 -4 -127 13 -7 190 -11 531 -11 l511 0
24 25 c14 13 25 36 25 50 0 14 -11 37 -25 50 l-24 25 -508 -1 c-334 0 -515 -4
-530 -11z"/>
<path d="M1025 2425 c-14 -13 -25 -36 -25 -50 0 -14 11 -37 25 -50 l24 -25
1511 0 1511 0 24 25 c32 31 32 69 0 100 l-24 25 -1511 0 -1511 0 -24 -25z"/>
<path d="M1021 2054 c-12 -15 -21 -33 -21 -40 0 -26 23 -62 47 -73 17 -8 208
-11 632 -11 600 0 609 0 635 21 33 26 36 79 6 109 -20 20 -33 20 -649 20
l-630 0 -20 -26z"/>
<path d="M2560 2060 c-30 -30 -27 -83 6 -109 26 -21 33 -21 755 -21 512 0 735
3 752 11 24 11 47 47 47 73 0 7 -9 25 -21 40 l-20 26 -750 0 c-736 0 -749 0
-769 -20z"/>
<path d="M1021 1684 c-27 -35 -26 -57 3 -91 l24 -28 327 0 327 0 24 28 c29 34
30 56 3 91 l-20 26 -334 0 -334 0 -20 -26z"/>
<path d="M1965 1690 c-25 -28 -23 -76 4 -103 l22 -22 603 0 c580 0 605 1 625
19 27 25 29 86 3 109 -17 15 -75 17 -629 17 -599 0 -610 0 -628 -20z"/>
<path d="M1675 1280 c-35 -14 -46 -36 -60 -127 -8 -48 -17 -100 -21 -115 l-6
-28 -166 1 c-248 2 -337 -31 -396 -149 -86 -169 86 -395 309 -410 83 -5 137 8
193 46 75 50 112 117 162 290 l21 72 94 0 c95 0 95 0 95 -25 0 -110 119 -183
224 -136 l46 20 52 -32 c47 -29 58 -32 132 -32 71 0 90 5 147 32 88 43 109 85
68 137 -26 33 -61 34 -131 1 -97 -45 -168 -24 -168 51 0 24 -8 43 -25 59 -40
41 -92 29 -121 -28 -19 -36 -53 -77 -66 -77 -5 0 -7 34 -6 76 4 110 -1 113
-175 106 l-134 -5 13 79 c18 112 17 158 -3 176 -24 21 -54 28 -78 18z m-126
-426 c2 -2 -8 -42 -23 -89 -36 -116 -72 -156 -144 -163 -70 -6 -130 17 -181
73 -46 50 -58 86 -43 120 26 57 100 75 277 67 61 -3 112 -6 114 -8z"/>
</g>
</svg>
