<?xml version="1.0" encoding="UTF-8"?>
<svg version="1.1" viewBox="0 0 900 900" width="1280" height="1280" xmlns="http://www.w3.org/2000/svg">
<path transform="translate(0)" d="m0 0h900v900h-900z" fill="#fff"/>
<path transform="translate(509,365)" d="m0 0h24l26 3 20 4 20 6 26 11 20 11 19 13 11 9 10 9 16 16 13 17 7 10 10 17 11 23 7 20 6 23 3 17 2 26v10l-3 31-5 24-6 19-6 16-8 16-10 18-10 14-9 11-9 10-14 14-11 9-12 9-14 9-14 8-20 9-24 8-21 5-20 3-10 1h-26l-26-3-27-6-24-8-18-8-24-14-19-14-12-11-8-7-13-14-15-20-11-18-8-15-9-23-5-16-5-23-3-25v-27l2-21 6-29 9-27 9-20 13-22 8-11 11-14 12-13 15-14 16-12 17-11 18-10 28-11 21-6 21-4z" fill="#fff"/>
<path transform="translate(224,56)" d="m0 0h32l23 4 21 6 19 8 18 10 14 10 14 12 11 11 11 14 9 14 8 14 8 19 6 22 3 16 1 10v26l-3 21-5 20-6 17-8 17-10 16-11 14-9 10-9 9-17 13-16 10-16 8-19 7-25 6-17 2h-24l-22-3-24-6-24-10-19-11-12-9-13-11-10-10-9-11-9-13-10-17-7-16-6-18-5-25-1-8v-28l3-22 7-26 9-21 9-16 10-14 9-10 7-8 13-12 16-12 22-12 20-8 22-6z" fill="#fff"/>
<path transform="translate(675,56)" d="m0 0h28l19 3 20 6 16 7 13 7 15 11 10 9 12 12 8 11 8 13 8 16 6 17 4 17 2 16v19l-3 22-6 21-9 21-11 17-8 10-11 12-10 9-13 9-14 8-13 6-18 6-21 4h-38l-16-3-24-8-16-8-14-9-14-11-15-15-12-17-12-23-5-13-5-20-2-15v-25l2-14 6-23 8-19 8-14 10-14 9-10 13-13 17-12 21-11 17-6 16-4z" fill="#fff"/>
<path transform="translate(509,365)" d="m0 0h24l26 3 20 4 20 6 26 11 20 11 19 13 11 9 10 9 16 16 13 17 7 10 10 17 11 23 7 20 6 23 3 17 2 26v10l-3 31-5 24-6 19-6 16-8 16-10 18-10 14-9 11-9 10-14 14-11 9-12 9-14 9-14 8-20 9-24 8-21 5-20 3-10 1h-26l-26-3-27-6-24-8-18-8-24-14-19-14-12-11-8-7-13-14-15-20-11-18-8-15-9-23-5-16-5-23-3-25v-27l2-21 6-29 9-27 9-20 13-22 8-11 11-14 12-13 15-14 16-12 17-11 18-10 28-11 21-6 21-4zm-7 29-27 4-25 7-21 9-19 10-13 9-13 10-13 12-9 9-9 11-13 19-8 14-8 18-8 24-5 25-2 19v21l3 26 6 25 7 20 9 19 8 13 12 17 9 10 7 8 11 11 17 13 15 10 22 11 19 7 22 6 16 3 9 1h36l17-2 22-5 17-5 25-11 17-10 14-10 14-12 17-17 11-14 10-15 8-14 9-21 6-18 5-23 2-18v-33l-3-21-6-24-9-24-8-16-7-12-10-14-11-13-19-19-17-13-16-10-19-10-25-9-21-5-22-3z" fill="#444"/>
<path transform="translate(224,56)" d="m0 0h32l23 4 21 6 19 8 18 10 14 10 14 12 11 11 11 14 9 14 8 14 8 19 6 22 3 16 1 10v26l-3 21-5 20-6 17-8 17-10 16-11 14-9 10-9 9-17 13-16 10-16 8-19 7-25 6-17 2h-24l-22-3-24-6-24-10-19-11-12-9-13-11-10-10-9-11-9-13-10-17-7-16-6-18-5-25-1-8v-28l3-22 7-26 9-21 9-16 10-14 9-10 7-8 13-12 16-12 22-12 20-8 22-6zm8 28-19 2-21 5-16 6-21 11-13 10-10 9-12 12-13 18-8 15-8 21-4 15-2 12-1 12v15l2 17 5 21 8 21 9 16 11 15 11 12 7 7 13 10 13 8 16 8 18 6 19 4 22 2 17-1 22-4 16-5 12-5 17-9 16-12 12-11 11-12 9-13 12-23 7-21 4-21 1-9v-16l-4-27-4-15-7-18-9-16-10-14-9-10-12-12-17-12-18-10-18-7-21-5-16-2z" fill="#444"/>
<path transform="translate(675,56)" d="m0 0h28l19 3 20 6 16 7 13 7 15 11 10 9 12 12 8 11 8 13 8 16 6 17 4 17 2 16v19l-3 22-6 21-9 21-11 17-8 10-11 12-10 9-13 9-14 8-13 6-18 6-21 4h-38l-16-3-24-8-16-8-14-9-14-11-15-15-12-17-12-23-5-13-5-20-2-15v-25l2-14 6-23 8-19 8-14 10-14 9-10 13-13 17-12 21-11 17-6 16-4zm7 28-17 2-21 6-19 9-13 9-14 12-10 12-10 15-7 15-5 16-3 14-1 9v16l3 18 6 21 8 16 10 15 9 10 9 9 15 11 16 8 13 5 17 4 7 1h26l17-3 17-5 17-8 16-11 13-12 9-10 10-15 7-15 6-21 2-11v-31l-4-18-5-15-8-16-7-11-11-13-11-10-18-12-17-8-21-6-17-2z" fill="#444"/>
<path transform="translate(376,492)" d="m0 0h8l6 4 14 19 10 14 12 17 13 18 10 14 2 1 7-11 8-11 26-36 10-14 8-11 7-4h7l7 4 3 5v178l-3 6-8 4-8-1-5-3-3-4-1-3v-124h-2l-13 18-10 14-13 18-9 12-4 2h-10l-6-4-13-18-12-17-13-18-6-8-1 119-1 9-5 5-6 3-8-1-7-5-1-3-1-11v-48l1-120 3-5z" fill="#444"/>
<path transform="translate(608,576)" d="m0 0 14 1 11 3 6-1 4-3h7l8 5 3 7v124l-2 13-4 10-8 10-9 7-10 5-7 2h-19l-12-4-10-7-5-4-9-14-3-10v-16l6-7 5-2 8 1 6 5 3 8 2 9 4 6 6 5 3 1h10l10-5 5-8 1-6v-22h-27l-12-3-13-8-8-8-5-9-4-11-1-6v-22l3-14 6-11 9-10 14-8 6-2z" fill="#444"/>
<path transform="translate(280,211)" d="m0 0h16l9 2 7 2 7-4h9l6 4 3 5 1 74 10 5 4 8-1 7-4 6-5 3-6 1-13-4-4-3-7 1-10 4-12 2-11-1-10-3-10-6-10-9-6-10-3-9-1-6v-27l4-13 4-8 9-10 11-7z" fill="#444"/>
<path transform="translate(166,155)" d="m0 0h19l13 4 11 8 8 9 6 12 2 9-1 13-4 5-6 3-9-1-5-3-3-6-2-11-5-8-6-4-3-1h-10l-8 4-6 7-2 12 1 73 5 8 7 5 4 1h8l10-5 5-8 3-13 3-5 6-3h8l6 4 3 4 1 3v10l-4 13-5 9-8 9-11 7-11 4h-20l-12-4-10-7-8-8-5-8-4-12-1-10v-66l1-16 5-12 8-11 10-8 12-5z" fill="#444"/>
<path transform="translate(620,140)" d="m0 0h57l8 4 4 8-1 9-8 16-9 19-10 19-9 19-9 17v1l36 1 6 3 3 5 1 10-4 6-3 3-4 1h-63l-6-3-5-8 2-10 45-90-1-1h-33l-7-3-4-5-1-2v-9l3-6 5-3z" fill="#444"/>
<path transform="translate(720,182)" d="m0 0 5 3 8-1 3-1h17l12 4 9 7 7 8 5 11 2 9v40l-1 10-4 6-5 3h-9l-6-4-3-4-1-5-1-48-3-5-7-3h-7l-8 7-1 4-1 48-3 6-7 4h-8l-6-4-3-3-1-4v-78l5-7 5-2z" fill="#444"/>
<path transform="translate(606,605)" d="m0 0h11l8 4 5 6 3 9v35l-2 2h-21l-10-3-7-8-3-9v-17l3-8 7-8z" fill="#fff"/>
<path transform="translate(284,239)" d="m0 0h8l8 3 7 8 2 5 1 8v9l-2 10-4 6-5 4-7 3h-9l-8-4-5-6-3-8v-20l4-10 7-6z" fill="#fff"/>
</svg>
