<svg xmlns="http://www.w3.org/2000/svg" fill="none" class="fjs-palette-field-icon" viewBox="4.05 12.15 45.9 29.7"><path fill="currentColor" fill-rule="evenodd" d="M47.008 12.15c1.625 0 2.942 1.36 2.942 3.039v23.622c0 1.678-1.317 3.039-2.942 3.039H6.992c-1.625 0-2.942-1.36-2.942-3.039V15.189c0-1.678 1.317-3.039 2.942-3.039h40.016Zm0 2.026H6.992c-.542 0-.98.454-.98 1.013V16.2h-.004v2.7h.003v19.911c0 .56.44 1.013.98 1.013h40.017c.542 0 .98-.453.98-1.013V18.9h.005v-2.7h-.004v-1.011c0-.56-.44-1.013-.98-1.013ZM14.934 26.055v-3.78h2.194v9.45h-2.194v-3.78h-3.29v3.78H9.45v-9.45h2.194v3.78h3.29Zm4.388-1.89h2.194v7.56h2.193v-7.56h2.194v-1.89h-6.581v1.89Zm14.26-1.89h2.193v9.45h-2.194V25.11l-1.645 3.78-1.645-3.78v6.615h-2.194v-9.45h2.194l1.645 3.78 1.645-3.78Zm4.387 0h2.194v7.56h4.387v1.89h-6.581v-9.45Z" clip-rule="evenodd"></path></svg>