<?xml version="1.0" encoding="UTF-8"?>
<svg version="1.1" viewBox="0 0 900 900" width="225" height="225" xmlns="http://www.w3.org/2000/svg">
<path transform="translate(0)" d="m0 0h900v900h-900z" fill="#FEFEFE"/>
<path transform="translate(363)" d="m0 0h537v593l-5-2-27-18-22-14-15-10-17-11-52-34 1 3-1 64h-121v-63h-44l-1 62-1 1h-82l-1-4v-46l1-13h-44l-1 62-1 1h-82l-1-1v-82l1-1h62v-45l-29 1h-33l-1-2v-82l1-1h62v-44h-62l-1-1v-82l1-1h62v-45l-42 1h-20l-1-1v-47l5-1h54l8 1-14-22-12-18-13-20-17-26-11-17-17-26-4-6z" fill="#FEFEFE"/>
<path transform="translate(897,595)" d="m0 0h3v305h-891l-3-2 30-3 49-6 54-6 15-2h8l-7-9-9-11-11-13-9-11-6-7 1-3 9-7 13-11 10-8 14-12 9-7 14-12 9-7 14-12 9-7 14-12 10-8 14-12 9-7 14-12 9-7 13-11 9-7 14-12 10-8 14-12 9-7 14-12 2-1h385l1 66 16-10 21-14 41-27 35-23 16-10z" fill="#FEFEFE"/>
<path transform="translate(361)" d="m0 0h2l6 11 16 24 9 14 19 29 13 20 19 29 6 9v2h-66v47h62v45l-62 1v82l62 1v44l-2 1h-60v84l33-1h29v45l-62 1v82h82l1-62 1-1h42l2 1v63l82-1 1-62 1-1h34l10 1v63h121v-67l5 2 18 12 46 30 26 17 29 19 14 9v2l-8 4-24 15-27 18-41 27-32 21-6 3v-67l-385 1-11 9-12 10-10 8-14 12-10 8-13 11-10 8-12 10-10 8-13 11-10 8-14 12-10 8-13 11-10 8-13 11-10 8-13 11-10 8-14 12-9 7-13 11-2 1 2 4 12 14 8 10 11 13 8 10v2l-66 8-87 10v1h-9v-4h2l1-7 12-39 15-49 17-56h4l8 10 11 13 8 10 10 12 2 3 5-2 13-11 13-10 16-13 14-11 7-6-4-44 1-5 14-12 11-9 8-6 1 1 4 45 2 1v-2l14-11 15-13 9-7 10-9 10-8h2v-2h2l-2-14-2-36 11-9 13-11 8-7h3l3 39v7l5-3 10-8 15-13 9-7 8-7v-452h-65l1-4 10-16 14-21 32-49 17-26 10-15z" fill="#010101"/>
<path transform="translate(0,503)" d="m0 0h39l6 13 17 44 9 23 3 2 2-10 13-38 11-34h39l-1 6-9 23-18 47-14 36-6 16-9 21-10 13-9 6-10 3-9 1h-24v-26l17-1 9-2 4-5 4-8-1-6-6-13-23-54-22-51-2-3z" fill="#010101"/>
<path transform="translate(765,704)" d="m0 0h38l5 3 9 14 13 19 4-4 9-13 10-14 4-5h39l1 2-11 15-28 38-4 5 2 4 16 21 10 14 13 18 5 5v2h-42l-13-18-14-20-2-1-2 6-10 14-13 18-1 1h-41l2-4 9-12 10-13 10-14 12-16 2-5-11-15-10-14-12-16-10-13z" fill="#010101"/>
<path transform="translate(120)" d="m0 0h108v27l-15 16-17 17-7 8-12 12-7 8-5 6 63 1v27l-1 1h-109l-1-2 1-26 7-8 27-27 7-8 13-13 6-7 4-4h-62z" fill="#010101"/>
</svg>
