<?xml version="1.0" encoding="UTF-8"?>
<svg version="1.1" viewBox="0 0 900 900" width="225" height="225" xmlns="http://www.w3.org/2000/svg">
<path transform="translate(0)" d="m0 0h900v900h-900z" fill="#fff"/>
<path transform="translate(370,75)" d="m0 0h46l12 3 10 7 6 7 4 8 1 4v17l-4 10-7 9-11 7-6 2-46 1-13 2-13 4-11 6-10 9-5 5-6 7-7 14-4 16-7 49-2 13v6l49 1 10 4 8 6 6 8 4 10v16l-3 9-6 9-8 7-10 4-4 1h-58l-18 132-14 101-13 95-4 23-6 20-7 16-11 18-8 10-8 9h-2l-1 3-8 7-17 12-12 7-20 8-19 5-11 2-16 1h-11l-13-1-14-7-8-8-4-7-2-8v-13l3-10 6-9 7-6 11-5 11-1 24-1 18-5 13-7 10-8 8-9 6-10 5-13 3-15 7-47 7-50 9-62 9-65 7-47 7-50 1-4-47-1-11-4-9-6-6-7-5-12-1-8 2-12 6-12 9-8 8-4 4-1 22-1h36l2-7 7-48 6-35 5-16 7-17 8-14 12-16 19-19 16-11 16-9 14-6 18-5z" fill="#010101"/>
<path transform="translate(540,337)" d="m0 0h8l9 2 9 5 6 5 9 13 13 20 21 32 4 5 29-44 14-21 9-10 10-5 7-2h11l11 3 8 6 8 9 4 9 1 4v14l-4 12-10 15-11 16-29 43-11 16-1 5 29 43 32 48 4 10 1 8-1 11-5 12-7 8-9 6-7 2h-15l-10-3-10-7-8-10-11-17-21-32-7-11-3-1-2 5-18 27-10 16-8 12-8 10-6 5-10 5-5 1h-14l-11-4-10-9-5-8-3-8v-17l4-10 10-16 7-10 44-66 1-3-10-14-16-24-15-22-20-30-5-11-1-5v-10l2-9 5-9 5-5 6-5 10-4z" fill="#010101"/>
<path transform="translate(747,247)" d="m0 0h11l12 4 8 6 10 11 13 18 10 15 9 16 11 21 11 27 6 17 8 32 4 25 2 25v48l-2 26-5 28-7 27-7 21-10 24-12 24-14 23-13 18-14 17-10 7-9 3-13 1-12-3-10-6-5-6-4-8-2-8v-14l4-12 8-11 9-11 12-17 10-18 8-16 8-20 7-24 5-25 2-13 1-24v-17l-1-20-4-27-6-24-8-24-11-24-8-15-9-14-8-11-12-16-4-11v-14l4-12 6-8 10-7z" fill="#010101"/>
<path transform="translate(480,247)" d="m0 0h8l11 3 10 6 6 7 5 10 1 3v17l-4 10-7 10-8 10-7 11-9 14-9 17-8 19-10 30-5 23-3 24-1 15v24l2 21 3 22 7 28 8 22 9 20 10 18 10 15 20 26 5 12 1 12-2 10-6 12-8 7-11 5-6 1h-8l-12-3-9-5-10-10-10-13-13-19-8-13-10-18-8-17-8-20-8-24-6-25-3-16-3-23-1-14v-48l2-20 3-22 5-23 8-27 10-25 12-25 10-18 17-25 11-14 9-10 10-5z" fill="#010101"/>
</svg>
