<?xml version="1.0" encoding="UTF-8"?>
<svg version="1.1" viewBox="0 0 800 800" width="1280" height="1280" xmlns="http://www.w3.org/2000/svg">
<path transform="translate(321,10)" d="m0 0h44l30 3 30 6 24 7 24 9 24 11 18 10 24 16 13 10 13 11 10 9 13 13 7 8 12 14 14 19 12 19 7 12 11 23 10 25 8 27 5 22 4 28 1 11v44l-4 34-6 27-8 27-10 25-11 23-13 22-8 12-7 10-1 4 163 163v2h2l9 12 4 10 1 4v13l-3 10-6 10-6 7-11 7-11 3h-14l-10-3-10-6-170-170-5 2-24 16-21 12-25 12-24 9-24 7-24 5-30 4-12 1h-34l-32-3-26-5-26-7-25-9-24-11-19-10-20-13-19-14-15-13-17-16-14-15-9-11-10-13-12-18-11-19-8-15-11-26-8-24-6-25-4-24-2-19-1-26 1-25 3-27 5-25 6-22 7-21 11-25 12-23 12-19 14-19 11-13 7-8 24-24 11-9 15-12 15-10 18-11 25-13 25-10 25-8 26-6 19-3zm13 54-26 2-24 4-23 6-23 8-18 8-20 11-21 14-14 11-12 11-8 7-4 4v2h-2l-9 11-11 13-12 18-8 13-10 19-10 25-8 26-4 18-3 19-1 12v39l3 26 5 24 7 24 9 22 9 19 14 23 12 16 11 13 14 15 11 10 14 11 15 11 20 12 24 12 24 9 21 6 20 4 23 3 18 1h12l28-2 29-5 28-8 25-10 16-8 18-10 20-14 11-9 15-13 6-6v-2l3-1 9-11 8-9 13-18 14-24 10-21 9-24 8-32 4-28 1-18v-16l-2-26-4-25-7-26-9-25-12-25-12-20-13-18-13-15-15-16-10-9-14-11-17-12-19-11-15-8-25-10-19-6-21-5-20-3-28-2z"/>
<path transform="translate(196,231)" d="m0 0h310l8 2 8 7 3 6v10l-4 7-7 6-8 2h-312l-8-3-7-8-2-4v-9l4-8 7-6z"/>
<path transform="translate(191,328)" d="m0 0h317l7 3 7 8 2 6-1 9-6 9-7 4-24 1h-288l-12-2-5-4-5-8-1-7 3-10 8-7z"/>
<path transform="translate(193,424)" d="m0 0h187l6 2 6 4 5 9v10l-6 9-5 4-3 1-26 1h-158l-9-1-6-4-5-6-2-5v-9l4-8 8-6z"/>
</svg>
