<?xml version="1.0" standalone="no"?>
<!DOCTYPE svg PUBLIC "-//W3C//DTD SVG 20010904//EN"
 "http://www.w3.org/TR/2001/REC-SVG-20010904/DTD/svg10.dtd">
<svg version="1.0" xmlns="http://www.w3.org/2000/svg"
 width="512.000000pt" height="512.000000pt" viewBox="0 0 512.000000 512.000000"
 preserveAspectRatio="xMidYMid meet">

<g transform="translate(0.000000,512.000000) scale(0.100000,-0.100000)"
fill="#000000" stroke="none">
<path d="M2490 4823 c-153 -15 -269 -29 -490 -60 -318 -44 -577 -53 -825 -29
-88 9 -219 21 -290 28 l-131 12 -67 -33 c-36 -18 -77 -45 -91 -62 -35 -41 -64
-125 -92 -261 l-24 -118 2 -1552 c3 -1715 -2 -1577 65 -1640 58 -56 129 -71
403 -88 227 -15 1305 -14 1888 1 249 6 456 8 459 5 3 -3 9 -91 12 -195 l7
-190 34 -31 c18 -16 42 -30 52 -30 21 0 16 -5 173 168 66 73 122 132 125 132
3 -1 70 -116 150 -257 79 -141 155 -269 168 -284 64 -77 241 -63 341 27 103
93 105 128 14 284 -83 145 -273 480 -273 484 0 3 23 6 320 37 107 11 200 25
207 31 7 6 13 23 13 39 0 24 -18 43 -117 126 -201 167 -513 402 -693 523 -36
24 -82 56 -102 72 l-38 29 -2 968 -3 968 -52 104 c-99 199 -223 377 -409 589
-167 190 -169 191 -261 201 -75 8 -401 9 -473 2z m475 -114 c19 -19 10 -314
-14 -426 -24 -116 -69 -250 -113 -337 -33 -65 -32 -98 4 -117 17 -9 107 -11
355 -6 182 4 344 4 360 1 l29 -6 0 -879 c0 -483 -1 -879 -3 -879 -2 0 -43 25
-90 55 -48 30 -93 55 -101 55 -23 0 -52 -20 -52 -37 0 -8 -14 -40 -31 -69
l-31 -54 11 -432 c6 -237 9 -433 7 -435 -24 -25 -2284 -38 -2486 -15 -63 7
-116 15 -118 17 -2 2 1 120 7 262 35 810 49 2046 33 2772 -6 244 -8 450 -5
458 11 29 51 30 283 7 461 -46 559 -44 1040 21 234 31 395 50 525 59 86 6 380
-5 390 -15z m281 -279 c47 -58 114 -148 148 -200 59 -87 166 -278 166 -293 0
-4 -137 -7 -305 -7 l-305 0 21 53 c66 163 98 312 106 497 l6 144 39 -44 c22
-25 78 -92 124 -150z m424 -2558 c229 -155 434 -305 636 -465 l154 -122 -52
-7 c-29 -4 -132 -17 -227 -28 -96 -12 -183 -26 -193 -31 -11 -6 -18 -21 -18
-38 0 -29 99 -215 281 -529 l90 -155 -33 -34 c-38 -40 -69 -57 -115 -66 -37
-7 -7 -55 -248 391 -81 150 -156 277 -167 283 -10 5 -26 8 -36 4 -9 -3 -75
-70 -147 -150 -71 -79 -133 -144 -137 -144 -5 -1 -8 200 -8 447 0 246 -3 525
-7 621 l-6 173 24 -12 c13 -7 107 -69 209 -138z"/>
<path d="M1215 3654 c-23 -23 -15 -66 15 -81 31 -16 1993 -19 2034 -3 34 12
44 54 21 80 -18 20 -38 20 -1036 20 -926 0 -1019 -1 -1034 -16z"/>
<path d="M1232 2678 c-15 -15 -15 -61 0 -76 17 -17 1809 -17 1826 0 7 7 12 24
12 38 0 14 -5 31 -12 38 -17 17 -1809 17 -1826 0z"/>
<path d="M1297 2259 c-15 -21 -17 -61 -17 -344 0 -274 2 -324 16 -343 15 -22
15 -22 348 -22 313 0 334 1 350 19 15 17 17 49 14 341 -3 291 -5 323 -20 334
-18 13 -111 19 -484 32 l-191 7 -16 -24z m458 -97 l150 -7 0 -250 0 -250 -257
-3 -258 -2 0 264 0 264 108 -5 c59 -3 175 -8 257 -11z"/>
<path d="M2244 1965 c-15 -23 -15 -27 0 -50 l16 -25 300 0 300 0 16 25 c15 23
15 27 0 50 l-16 25 -300 0 -300 0 -16 -25z"/>
</g>
</svg>
