<?xml version="1.0" standalone="no"?>
<!DOCTYPE svg PUBLIC "-//W3C//DTD SVG 20010904//EN"
 "http://www.w3.org/TR/2001/REC-SVG-20010904/DTD/svg10.dtd">
<svg version="1.0" xmlns="http://www.w3.org/2000/svg"
 width="512.000000pt" height="512.000000pt" viewBox="0 0 512.000000 512.000000"
 preserveAspectRatio="xMidYMid meet">

<g transform="translate(0.000000,512.000000) scale(0.100000,-0.100000)"
fill="#000000" stroke="none">
<path d="M535 5100 c-345 -38 -593 -380 -521 -720 26 -122 76 -212 170 -305
135 -133 259 -181 451 -172 167 7 282 57 395 171 402 406 73 1088 -495 1026z
m192 -165 c294 -87 421 -432 252 -684 -207 -310 -676 -247 -801 108 -25 72
-27 195 -4 273 41 138 163 258 306 302 61 19 185 19 247 1z"/>
<path d="M2482 5099 c-133 -17 -247 -74 -347 -174 -118 -118 -176 -258 -176
-424 0 -108 13 -164 63 -270 72 -151 219 -271 388 -316 30 -8 98 -15 150 -15
171 0 307 56 426 175 77 77 139 187 164 290 17 71 14 211 -5 286 -75 291 -364
486 -663 448z m207 -168 c83 -26 137 -60 198 -123 109 -116 148 -268 107 -423
-39 -152 -167 -280 -319 -320 -379 -98 -692 298 -513 649 27 53 112 142 166
173 106 62 247 80 361 44z"/>
<path d="M4440 5099 c-367 -40 -613 -423 -501 -779 56 -179 211 -336 391 -396
42 -15 85 -19 185 -19 113 0 139 3 198 25 38 13 80 34 93 47 30 27 31 71 4
101 -26 28 -64 28 -132 1 -109 -43 -260 -34 -370 22 -216 110 -304 377 -197
597 151 311 585 340 778 51 97 -145 99 -350 6 -491 -39 -59 -42 -92 -12 -122
35 -35 80 -35 113 1 30 32 87 148 105 213 22 77 17 244 -8 325 -89 282 -357
456 -653 424z"/>
<path d="M1108 4036 c-27 -20 -37 -58 -24 -88 6 -15 162 -172 346 -349 184
-177 372 -357 416 -401 89 -85 112 -93 158 -57 33 26 35 74 3 110 -12 14 -155
154 -317 310 -162 155 -343 329 -401 386 -111 108 -139 121 -181 89z"/>
<path d="M3889 4030 c-43 -25 -855 -773 -863 -795 -14 -35 3 -77 38 -94 24
-11 33 -11 56 0 33 17 856 763 870 789 34 63 -40 136 -101 100z"/>
<path d="M2513 3776 l-28 -24 -3 -155 c-4 -175 7 -221 52 -233 45 -11 76 4 92
43 12 28 15 70 12 190 l-3 155 -28 24 c-15 13 -37 24 -47 24 -10 0 -32 -11
-47 -24z"/>
<path d="M2473 3270 c-123 -17 -262 -90 -352 -185 -169 -181 -210 -442 -104
-677 33 -74 51 -90 99 -86 27 2 43 11 58 31 22 30 24 21 -31 147 -25 58 -28
76 -28 170 1 86 5 116 24 162 46 116 142 213 259 260 47 19 76 23 162 23 86 0
115 -4 162 -23 251 -101 360 -393 237 -635 -11 -21 -45 -65 -75 -98 -48 -53
-55 -64 -52 -96 4 -47 43 -79 85 -69 45 11 139 120 183 211 46 96 61 163 61
272 0 164 -59 302 -180 423 -136 135 -317 195 -508 170z"/>
<path d="M2415 2787 c-83 -33 -128 -72 -167 -147 -22 -44 -23 -54 -26 -323 -2
-233 -5 -278 -17 -273 -115 44 -237 22 -314 -58 l-31 -32 -61 30 c-78 38 -158
40 -237 6 -66 -28 -135 -103 -153 -165 -9 -32 -18 -44 -28 -40 -83 32 -172 30
-243 -6 -59 -29 -95 -65 -126 -124 l-27 -50 -3 -310 c-4 -355 6 -474 44 -512
30 -30 66 -29 101 1 l27 24 -12 109 c-18 163 -16 626 3 663 34 65 108 94 168
65 57 -27 71 -57 77 -163 5 -77 9 -96 27 -114 27 -26 75 -28 102 -4 18 16 20
35 23 209 3 167 5 196 22 223 52 86 170 86 222 0 16 -26 20 -56 22 -178 4
-145 4 -148 29 -168 42 -33 85 -23 111 27 8 14 12 80 12 185 0 174 3 187 55
230 53 44 139 25 182 -41 22 -32 23 -43 23 -232 0 -108 3 -205 6 -214 4 -8 20
-23 36 -31 25 -13 35 -13 59 -3 17 6 34 20 39 30 6 11 10 240 10 581 0 544 1
564 20 596 23 37 75 72 108 72 40 0 91 -28 112 -62 20 -32 20 -48 20 -795 0
-537 3 -769 11 -786 11 -24 47 -47 73 -47 7 0 25 9 40 21 l26 20 0 792 c0 774
-1 793 -21 837 -29 65 -94 127 -157 150 -58 22 -140 25 -187 7z"/>
<path d="M2908 1805 c-78 -25 -100 -103 -41 -142 22 -14 32 -15 89 -4 61 12
66 12 111 -10 95 -48 114 -119 65 -245 -36 -96 -49 -172 -62 -372 -22 -341
-102 -566 -254 -718 -73 -72 -130 -106 -221 -130 -79 -22 -806 -20 -894 2
-191 47 -345 179 -452 386 -53 104 -83 134 -121 123 -68 -21 -75 -72 -22 -178
103 -204 245 -348 427 -432 147 -68 166 -70 617 -70 446 0 473 3 602 65 278
132 448 479 473 965 8 159 22 235 56 323 67 169 15 333 -131 411 -74 39 -168
49 -242 26z"/>
</g>
</svg>
