<?xml version="1.0" encoding="UTF-8"?>
<svg version="1.1" viewBox="0 0 900 900" width="1280" height="1280" xmlns="http://www.w3.org/2000/svg">
<path transform="translate(0)" d="m0 0h900v900h-900z" fill="#010101"/>
<path transform="translate(168,112)" d="m0 0h563l11 2 10 7 5 7 2 6v207l-9 3-19 9-13 9-12 11-7 8-9 14-6 12-4 11-4 20v24l3 15 5 16 8 16 8 11 11 12 10 8 13 8 18 8 7 2 1 4-1 204-5 10-4 5-6 4-7 2h-575l-8-3-8-7-5-10-1-7v-200l3-3 13-4 19-10 13-11 7-6 12-16 8-15 5-15 3-12 1-8v-19l-2-14-5-17-8-17-10-14-9-10-9-8-18-11-17-7-5-2-1-1v-202l2-8 6-9 8-6 5-2z" fill="#FEFEFE"/>
<path transform="translate(899,464)" d="m0 0h1v436h-900v-435l2 3 4 16 6 16 9 15 12 14 10 9 18 11 16 7 7 3 1 204 3 18 5 14 8 14 11 12 12 9 14 7 15 4 16 2h564l19-3 15-5 12-7 11-9 8-9 7-11 6-15 3-15 1-9v-144l1-57 7-3 16-7 15-9 12-11 10-10 9-14 6-13 5-15z" fill="#FEFEFE"/>
<path transform="translate(0)" d="m0 0h900v435h-2l-3-17-6-15-8-15-11-14-9-9-14-10-16-8-15-6-1-73-1-138-4-18-8-16-8-11-8-8-13-9-13-6-16-4-5-1-513-1-66 1-18 4-16 7-13 10-4 2-2 4-8 10-6 11-5 13-3 19-1 204-9 3-19 9-13 9-12 11-11 13-11 21-5 15-3 14h-1z" fill="#FEFEFE"/>
<path transform="translate(257,225)" d="m0 0h386l1 15 2 71v26h-21l-1-1-3-17-5-17-8-16-7-9-10-8-15-7-18-4-27-3-14-1-33-1v363l2 13 5 8 5 4 10 4 19 4 16 2 2 1-1 22-1 1h-183l-1-1v-22l1-1 30-5 16-5 6-5 4-7 1-15 1-361-36 1-24 2-21 3-16 5-13 7-6 5h-2l-2 4-7 10-8 20-4 17-2 9-1 1h-20l-1-1 2-76 1-34z" fill="#010101"/>
<path transform="translate(110,393)" d="m0 0 13 1 15 5 11 8 8 8 7 11 4 12 1 15-3 16-6 12-11 12-9 6-8 4-11 3h-18l-13-4-11-6-9-8-7-10-5-12-2-9v-14l3-12 7-14 9-10 10-7 9-4z" fill="#FEFEFE"/>
<path transform="translate(783,393)" d="m0 0 15 1 15 5 10 7 10 10 8 16 3 12v10l-2 12-4 10-7 10-9 9-12 7-14 4h-19l-12-4-12-7-11-11-6-10-4-11-1-7v-12l3-14 7-13 14-14 14-7z" fill="#FEFEFE"/>
</svg>
