<?xml version="1.0" encoding="UTF-8"?>
<svg version="1.1" viewBox="0 0 900 900" width="1280" height="1280" xmlns="http://www.w3.org/2000/svg">
<path transform="translate(0)" d="m0 0h900v900h-900z" fill="#fff"/>
<path transform="translate(447,107)" d="m0 0 15 1 16 3 15 6 14 8 14 12 9 11 8 13 6 15 4 18v22l-4 19-6 15-7 12-9 11-7 7-14 10-12 6-7 3v58l1 2 11 6 25 14 17 10 26 15 28 16 16 10 9 10 5 13 1 140 9 6 28 16 9 5 18-12 11-5 12-4 11-2 19-1 17 3 15 5 14 7 13 10 9 9 8 11 8 16 4 11 3 14v25l-3 14-6 16-6 11-7 9-9 10-14 11-16 8-13 4-9 2h-28l-17-4-16-7-12-8-10-9-7-7-10-15-7-16-4-17v-35l-6-2-15-9-19-11-6 1-20 11-17 10-21 12-52 30-15 8-15 3-13-3-19-10-24-14-52-30-28-16-4-2h-5l-10 6-28 17-1 1v33l-3 14-6 16-7 11-8 10-11 11-15 10-16 7-17 4h-26l-18-4-16-7-10-6-13-11-11-13-9-16-7-21-1-6v-26l5-21 8-16 7-11 12-13 12-9 11-6 15-6 20-4h13l22 4 15 6 14 8 8 6 5-2 8-5 24-14 7-4h2l1-141 5-13 7-9 10-7 17-10 28-16 26-15 28-16 17-10v-59l-17-8-14-10-11-10-11-16-6-12-4-13-3-17v-17l3-16 6-16 6-11 9-12 12-12 15-10 16-7 18-4z" fill="#010101"/>
<path transform="translate(449,412)" d="m0 0 12 6 21 12 17 10 52 30 7 5v122l-5 4-17 10-28 16-52 30-4 3-5-1-24-14-23-13-24-14-21-12-12-7-1-2v-122l5-4 18-10 17-10 52-30 12-7z" fill="#fff"/>
<path transform="translate(163,652)" d="m0 0h9l11 2 9 5 10 9 5 8 3 8 1 6v9l-2 9-5 10-8 9-9 6-9 3-5 1h-9l-13-3-9-6-8-8-6-12-2-6v-15l4-11 7-11 10-8 10-4z" fill="#fff"/>
<path transform="translate(440,164)" d="m0 0h19l9 3 11 7 8 10 4 9 1 5v16l-3 10-7 10-7 7-11 5-9 2h-12l-10-3-10-6-7-7-7-14-1-4v-17l4-11 8-11 8-6 8-4z" fill="#fff"/>
<path transform="translate(728,652)" d="m0 0 15 1 14 7 9 9 7 14 1 4v15l-3 10-6 9-5 5-9 7-9 3-5 1h-11l-12-3-11-8-7-8-5-10-2-10 1-13 5-12 6-8 7-6 10-5z" fill="#fff"/>
</svg>
