<?xml version="1.0" encoding="UTF-8"?>
<svg version="1.1" xmlns="http://www.w3.org/2000/svg" width="225" height="225">
<path d="M0 0 C74.25 0 148.5 0 225 0 C225 74.25 225 148.5 225 225 C150.75 225 76.5 225 0 225 C0 150.75 0 76.5 0 0 Z " fill="#FDFDFD" transform="translate(0,0)"/>
<path d="M0 0 C2.88671875 1.60546875 2.88671875 1.60546875 5 3 C4.67 5.31 4.34 7.62 4 10 C-1.31637797 10.50632171 -3.82517803 9.24708376 -8 6 C-8.43570313 5.47019531 -8.87140625 4.94039062 -9.3203125 4.39453125 C-12.41259915 1.82721419 -16.07157692 2.48435987 -19.91796875 2.58203125 C-25.74995189 3.37293391 -29.30310332 6.25724125 -33.3125 10.375 C-39.16202848 19.47426653 -39.28854403 29.11242539 -37.34375 39.5078125 C-34.44666156 49.87239614 -29.28019529 61.74425365 -19.62109375 67.390625 C-17.04835331 68.97031063 -14.9549827 70.70194233 -12.6875 72.6875 C-8.28536687 76.26754803 -3.73955356 78.9157922 1.3125 81.4375 C1.99417236 81.77934326 2.67584473 82.12118652 3.37817383 82.47338867 C8.48368343 85.03114857 8.48368343 85.03114857 14 86 C16.70726926 84.96935845 19.08394116 83.90719776 21.625 82.5625 C22.32778076 82.20067627 23.03056152 81.83885254 23.75463867 81.46606445 C30.42232612 77.94470391 37.22633101 73.93297955 42.48046875 68.45703125 C44 67 44 67 46.46875 65.59375 C55.6470387 59.81482748 60.51046727 46.06684412 63 36 C64.16742923 25.81867008 63.20743155 17.36653817 57 9 C52.59095177 4.38223943 48.28650613 2.63430302 41.9375 2.25 C36.53889603 2.50348775 33.78973782 4.06443696 29.82421875 7.59765625 C26.97044537 9.79145635 24.534161 9.85274329 21 10 C19 7 19 7 19 5.0625 C20.54326483 1.8795163 22.88337911 0.43161854 26 -1 C35.31403223 -3.89842262 45.25237789 -4.66129735 54.07421875 -0.1171875 C61.11918641 3.96975114 65.42567091 10.27701272 68 18 C69.98337676 38.16317055 65.00546687 52.00723651 53 68 C52.48566406 68.76054688 51.97132813 69.52109375 51.44140625 70.3046875 C43.93320571 81.23730811 31.33307913 88.43852732 19.11328125 93.1015625 C16.82818863 93.80349259 16.82818863 93.80349259 16 96 C13.77598863 112.09231086 11.68815648 135.16854522 22 149 C25.99051918 153.13592272 29.49878481 156.71009046 35.453125 157.203125 C43.00166644 157.32963687 47.79864784 156.75465186 53.6875 151.6875 C58.04574523 146.6225123 60.53885405 142.10290968 62.25 135.625 C62.58515625 134.37976563 62.9203125 133.13453125 63.265625 131.8515625 C63.62914062 130.44003906 63.62914062 130.44003906 64 129 C63.24203125 128.7421875 62.4840625 128.484375 61.703125 128.21875 C58.88375384 126.94758844 57.66422241 125.87766573 55.75 123.5 C55.24984375 122.8915625 54.7496875 122.283125 54.234375 121.65625 C50.79448578 117.04070244 51.28198773 111.50936339 52 106 C54.65897985 100.09326619 59.09888582 96.40045322 65 94 C70.05505401 93.04191215 73.86573127 93.57564327 78.3125 96.1875 C82.10367015 98.84585039 84.91565111 101.83130222 87 106 C87.72562776 113.06594897 87.41918211 119.2168728 83 125 C79.13510466 128.27675909 76.02667941 129.52126863 71 130 C70.9175 131.27875 70.835 132.5575 70.75 133.875 C69.56862048 144.06040718 64.86289547 152.77437578 57.203125 159.6015625 C49.321441 165.56513756 40.62266247 166.08880279 31 165 C21.8516903 162.0405837 16.08118113 155.98795578 11.7578125 147.5859375 C7.31938997 137.3808054 6.69040737 126.93226267 6.8125 115.9375 C6.81314453 114.83083984 6.81378906 113.72417969 6.81445312 112.58398438 C6.84945501 105.99974146 7.19969815 99.53595196 8 93 C6.98486328 92.86271484 6.98486328 92.86271484 5.94921875 92.72265625 C2.26803368 91.82064402 -0.87470096 90.22400309 -4.1875 88.4375 C-5.17508301 87.90829956 -5.17508301 87.90829956 -6.18261719 87.3684082 C-13.43986625 83.36877496 -21.95137799 78.18265741 -26.25 70.875 C-27.77954827 68.3621707 -29.36468012 66.36381736 -31.25 64.125 C-40.80314953 51.97566546 -45.26360961 37.38750417 -44 22 C-42.64239182 13.57048737 -38.68830058 6.60439989 -31.87109375 1.36328125 C-21.68471422 -5.18376563 -11.20269049 -3.56782934 0 0 Z " fill="#161415" transform="translate(93,34)"/>
<path d="M0 0 C5.28787442 2.29551138 9.86029427 5.74408086 12.4140625 11.00390625 C13.80990634 15.75908094 14.15105234 20.84223951 11.78515625 25.27734375 C10 27 10 27 7.625 27.4609375 C6.325625 27.41839844 6.325625 27.41839844 5 27.375 C4.13375 27.36210938 3.2675 27.34921875 2.375 27.3359375 C0 27 0 27 -3 25 C-5.38127845 25.31750379 -7.14990617 26.07292733 -9.3125 27.125 C-12.97321847 28.31686183 -15.30076493 28.00888229 -19 27 C-22.07432243 24.31982147 -22.89124634 22.72049298 -23.5 18.6875 C-22.49807822 11.29832687 -19.34514904 6.7438203 -13.5859375 2.12890625 C-9.37977278 -0.86513711 -4.98871865 -0.74012374 0 0 Z " fill="#161415" transform="translate(110,74)"/>
<path d="M0 0 C4.18531174 1.72871572 6.23950002 3.83039478 8 8 C8.53204782 12.78843042 8.49783872 14.98517492 6.375 19.3125 C3.32638755 22.76224567 0.74115192 24.82228288 -3.98828125 25.12890625 C-7.98667747 24.88041835 -9.71064885 24.23902921 -12.875 21.625 C-16.04715368 17.70645721 -17.55630958 15.29634831 -17.4609375 10.13671875 C-16.61684071 6.22382939 -13.9177214 3.60780798 -11 1 C-7.54820431 -0.72589785 -3.78133961 -0.36043965 0 0 Z " fill="#F0F0F0" transform="translate(167,134)"/>
<path d="M0 0 C2.4375 1.625 2.4375 1.625 4 4 C4.5625 6.9375 4.5625 6.9375 4 10 C1.9375 12.9375 1.9375 12.9375 -1 15 C-4.85210127 15.06641554 -6.99848005 14.87229157 -9.9375 12.3125 C-11.33817538 9.26397123 -11.4842732 7.32073048 -11 4 C-8.05899778 -0.47032338 -5.13105401 -0.73300772 0 0 Z " fill="#191718" transform="translate(166,139)"/>
<path d="M0 0 C5.4 0.48 5.4 0.48 7.875 2.625 C9.46764451 5.98724952 9.45186895 8.3204957 9 12 C7 14.9375 7 14.9375 5 17 C2.45889061 16.65660684 0.45538602 16.27648437 -1.75 14.9375 C-3.74180759 11.85019823 -4.26664371 8.60670701 -4 5 C-2.0625 2 -2.0625 2 0 0 Z " fill="#181617" transform="translate(94,54)"/>
<path d="M0 0 C2.875 0.3125 2.875 0.3125 6 1 C8.45193779 4.67790669 8.71511798 7.72592275 8 12 C6 15 6 15 4 17 C1.125 16.6875 1.125 16.6875 -2 16 C-4.45193779 12.32209331 -4.71511798 9.27407725 -4 5 C-2 2 -2 2 0 0 Z " fill="#1B191A" transform="translate(112,54)"/>
<path d="M0 0 C2.3125 0.9375 2.3125 0.9375 4.3125 2.9375 C4.63946519 6.99186831 4.85487312 9.7322264 3.1875 13.4375 C1.3125 14.9375 1.3125 14.9375 -1.6875 15.375 C-4.6875 14.9375 -4.6875 14.9375 -6.5625 13.875 C-8.38382206 10.73827867 -8.17674087 8.48449627 -7.6875 4.9375 C-4.01908647 -0.09346713 -4.01908647 -0.09346713 0 0 Z " fill="#1A1819" transform="translate(128.6875,66.0625)"/>
<path d="M0 0 C2.71520828 0.9503229 3.73844941 1.63899166 5.5 3.875 C5.86328125 6.06640625 5.86328125 6.06640625 5.8125 8.4375 C5.80863281 9.22253906 5.80476563 10.00757812 5.80078125 10.81640625 C5.5 12.875 5.5 12.875 3.5 14.875 C0.5625 15.25 0.5625 15.25 -2.5 14.875 C-4.7288277 13.09193784 -5.37382488 11.7459588 -5.78125 8.93359375 C-5.91613186 5.88189155 -5.85468566 3.49103298 -4.3125 0.8125 C-2.5 -0.125 -2.5 -0.125 0 0 Z " fill="#141313" transform="translate(83.5,66.125)"/>
<path d="M0 0 C0.598125 0.226875 1.19625 0.45375 1.8125 0.6875 C0.8225 0.6875 -0.1675 0.6875 -1.1875 0.6875 C-3.30796792 4.22161321 -3.71949289 7.63143835 -4.1875 11.6875 C-4.8475 11.0275 -5.5075 10.3675 -6.1875 9.6875 C-5.99894719 6.23069856 -5.79703065 3.61630861 -3.875 0.6875 C-2.1875 -0.3125 -2.1875 -0.3125 0 0 Z " fill="#313030" transform="translate(96.1875,54.3125)"/>
<path d="M0 0 C0.99 0.33 1.98 0.66 3 1 C2.0409375 1.804375 2.0409375 1.804375 1.0625 2.625 C-1.38529404 5.44367193 -1.66714612 7.33860732 -2 11 C-2.33 11 -2.66 11 -3 11 C-3.36923077 4.6 -3.36923077 4.6 -1.5 1.5625 C-1.005 1.046875 -0.51 0.53125 0 0 Z " fill="#0C0B0B" transform="translate(111,55)"/>
</svg>
