<?xml version="1.0" encoding="UTF-8"?>
<svg version="1.1" viewBox="0 0 1024 1024" width="1280" height="1280" xmlns="http://www.w3.org/2000/svg">
<path transform="translate(729)" d="m0 0h60v2l11 1 27 7 24 10 20 11 14 10 11 9 12 11 8 8 9 11 11 15 13 23 8 19 6 19 5 25 2 22v17l-3 27-5 21-6 18-9 20-8 14-8 12-9 12-14 15-9 9-14 11-13 9-11 7-1 101-3 8-7 7-7 2h-9l-8-4-6-9-1-3v-85l-15 4-17 3-10 1h-37l-16-2v413l-1 24-4 15-6 12-9 12-10 9-15 8-13 4-18 2h-416v36l2 9 4 8 7 7 9 4 4 1h533l10-3 6-4 3-1 6-12 2-10v-194l1-90 4-7 7-6 5-2h7l8 3 6 5 4 9v282l-2 17-4 11-6 12-6 8h-2l-2 4-12 9-14 7-11 4h-551l-17-6-12-7-10-9-8-9-8-15-4-14-1-9v-38h-65l-15-2-12-4-11-6-11-9-8-9-8-14-4-11-2-12v-741l3-15 5-12 7-11 3-4h2l2-4 10-8 10-6 15-5 6-1 504-1 12-1 18-12 16-9 16-7 18-6 25-6zm26 40-22 2-19 4-18 6-21 10-12 8-16 12v2l-4 2-10 10-11 14-10 15-8 16-8 21-5 23-2 27 2 23 5 23 7 19 8 16 6 10 11 15 12 13 13 12 16 11 16 9 20 8 18 5 19 3h34l19-3 21-6 17-7 16-9 17-12 15-14 11-12 10-14 9-16 8-18 5-17 4-23 1-20-2-23-3-15-6-20-7-16-10-18-13-17-6-7-8-7-10-9-18-12-19-10-20-7-16-4-14-2zm-620 43-16 1-12 6-7 8-4 8-1 7v735l3 10 6 8 8 6 7 3 5 1h528l10-2 8-5 5-5 4-5 3-8 1-17v-428l-15-7-17-9-15-10-10-8-10-9-16-16-11-14-7-10-10 2h-366l-7-2-6-5-3-5-1-5v-91l4-8v-2l10-5 345-1 2-11 4-25 4-16 7-19 11-23 8-13 6-9v-2zm94 159v43h319v-43z"/>
<path transform="translate(215,489)" d="m0 0h337l23 1 7 4 6 7 2 7-1 8-4 7-7 6-3 1-23 1h-342l-10-2-8-7-4-8v-7l3-8 4-5 7-4z"/>
<path transform="translate(262,394)" d="m0 0h294l19 1 8 5 5 6 2 7-1 8-4 7-5 5-5 2-25 1h-336l-12-1-5-3-5-5-4-8v-7l3-8 5-5 6-4z"/>
<path transform="translate(206,679)" d="m0 0h365l9 3 8 9 2 10-3 9-6 7-4 2-7 1h-365l-8-3-7-8-2-6 1-10 5-8 7-5z"/>
<path transform="translate(236,584)" d="m0 0h310l30 1 6 4 6 7 2 10-3 9-6 7-7 3h-371l-6-3-7-8-2-6 1-10 4-7 9-6z"/>
<path transform="translate(756,163)" d="m0 0 10 1 9 6 4 7 1 4v139l-2 9-6 8-6 3-10 1-8-3-5-5-4-7-1-31v-31l1-86 4-7 7-6z"/>
<path transform="translate(754,99)" d="m0 0h9l8 3 7 8 2 6v7l-5 10-8 6-4 1h-7l-8-3-5-5-4-7v-11l4-8 8-6z"/>
<path transform="translate(833,563)" d="m0 0h12l8 4 6 9 1 4v7l-4 8-7 6-4 2h-11l-6-3-7-8-2-5v-8l3-8 7-6z"/>
<path transform="translate(246,1023)" d="m0 0"/>
<path transform="translate(726)" d="m0 0"/>
</svg>
